<?xml version="1.0" encoding="iso-8859-1"?>
<!-- Uploaded to: SVG Repo, www.svgrepo.com, Generator: SVG Repo Mixer Tools -->
<svg height="800px" width="800px" version="1.1" id="Layer_1" xmlns="http://www.w3.org/2000/svg" xmlns:xlink="http://www.w3.org/1999/xlink" 
	 viewBox="0 0 504.32 504.32" xml:space="preserve">
<g transform="translate(1 1)">
	<path style="fill:#AE938D;" d="M464.067,464.493v-102.4V276.76H293.4h-85.333H37.4v85.333v102.4H464.067z M498.2,54.893v409.6
		c0,18.773-15.36,34.133-34.133,34.133H37.4c-18.773,0-34.133-15.36-34.133-34.133V242.627H37.4h68.267H191h68.267H293.4h34.133
		h102.4h34.133v-179.2c0-4.267-3.413-8.533-8.533-8.533H293.4V20.76h170.667C482.84,20.76,498.2,36.12,498.2,54.893z M208.067,20.76
		v34.133H45.933c-4.267,0-8.533,4.267-8.533,8.533v179.2H3.267V54.893c0-18.773,15.36-34.133,34.133-34.133H208.067z"/>
	<path style="fill:#AAB1BA;" d="M310.467,174.36c0-9.387-7.68-17.067-17.067-17.067s-17.067,7.68-17.067,17.067
		s7.68,17.067,17.067,17.067S310.467,183.747,310.467,174.36 M122.733,123.16c0-9.387-7.68-17.067-17.067-17.067
		S88.6,113.773,88.6,123.16s7.68,17.067,17.067,17.067H71.533v34.133h8.533c0,0,8.533,42.667,25.6,68.267H37.4v-179.2
		c0-4.267,4.267-8.533,8.533-8.533h162.133c0,10.24,6.827,17.067,17.067,17.067h25.6h25.6c10.24,0,17.067-6.827,17.067-17.067
		h162.133c5.12,0,8.533,4.267,8.533,8.533v179.2h-34.133v-34.133H447V174.36h-90.453v-0.853l73.387-41.813l-17.067-29.867
		l-74.24,42.667l17.067,29.867H344.6v34.133h-17.067v34.133H293.4c0-9.387-7.68-17.067-17.067-17.067s-17.067,7.68-17.067,17.067
		H191c17.067-25.6,25.6-68.267,25.6-68.267h8.533v-34.133H191c0-9.387-7.68-17.067-17.067-17.067
		c-9.387,0-17.067,7.68-17.067,17.067h-51.2C115.053,140.227,122.733,132.547,122.733,123.16 M242.2,123.16
		c0,9.387,7.68,17.067,17.067,17.067c9.387,0,17.067-7.68,17.067-17.067s-7.68-17.067-17.067-17.067
		C249.88,106.093,242.2,113.773,242.2,123.16"/>
	<path style="fill:#FFE079;" d="M191,140.227h-34.133c0-9.387,7.68-17.067,17.067-17.067C183.32,123.16,191,130.84,191,140.227z
		 M293.4,242.627h-34.133c0-9.387,7.68-17.067,17.067-17.067S293.4,233.24,293.4,242.627z M105.667,106.093
		c9.387,0,17.067,7.68,17.067,17.067s-7.68,17.067-17.067,17.067S88.6,132.547,88.6,123.16S96.28,106.093,105.667,106.093z
		 M293.4,157.293c9.387,0,17.067,7.68,17.067,17.067s-7.68,17.067-17.067,17.067s-17.067-7.68-17.067-17.067
		S284.013,157.293,293.4,157.293z M429.933,208.493v34.133h-102.4v-34.133H344.6V174.36h11.093h0.853H447v34.133H429.933z
		 M356.547,173.507L356.547,173.507l-0.853,0.853l-17.067-29.867l74.24-42.667l17.067,29.867L356.547,173.507z M259.267,106.093
		c9.387,0,17.067,7.68,17.067,17.067s-7.68,17.067-17.067,17.067c-9.387,0-17.067-7.68-17.067-17.067
		S249.88,106.093,259.267,106.093z M80.067,174.36h-8.533v-34.133h34.133h51.2H191h34.133v34.133H216.6
		c0,0-8.533,42.667-25.6,68.267h-85.333C88.6,217.027,80.067,174.36,80.067,174.36z"/>
	<path style="fill:#E4F2DE;" d="M293.4,276.76v42.667c0,23.893-18.773,42.667-42.667,42.667s-42.667-18.773-42.667-42.667V276.76
		H293.4z M250.733,71.96h-25.6c-10.24,0-17.067-6.827-17.067-17.067V20.76V3.693H293.4V20.76v34.133
		c0,11.093-6.827,17.067-17.067,17.067H250.733z"/>
	<path style="fill:#FFD0A1;" d="M37.4,362.093V276.76h170.667v42.667c0,23.893,18.773,42.667,42.667,42.667
		S293.4,343.32,293.4,319.427V276.76h170.667v85.333v102.4H37.4V362.093z"/>
</g>
<path style="fill:#51565F;" d="M465.067,503.893H38.4c-21.333,0-38.4-17.067-38.4-38.4V277.76c0-2.56,1.707-4.267,4.267-4.267
	s4.267,1.707,4.267,4.267v187.733c0,16.213,13.653,29.867,29.867,29.867h426.667c16.213,0,29.867-13.653,29.867-29.867v-409.6
	c0-16.213-13.653-29.867-29.867-29.867h-166.4v29.867c0,12.8-8.533,21.333-21.333,21.333h-51.2c-12.8,0-21.333-8.533-21.333-21.333
	V26.027H38.4c-16.213,0-29.867,13.653-29.867,29.867V239.36h90.453c-11.947-21.333-19.627-50.347-21.333-59.733h-5.12
	c-2.56,0-4.267-1.707-4.267-4.267v-34.133c0-2.56,1.707-4.267,4.267-4.267H89.6c-2.56-3.413-4.267-7.68-4.267-12.8
	c0-11.947,9.387-21.333,21.333-21.333S128,112.213,128,124.16c0,5.12-1.707,9.387-4.267,12.8h30.72
	c1.707-9.387,10.24-17.067,20.48-17.067c10.24,0,18.773,7.68,20.48,17.067h30.72c2.56,0,4.267,1.707,4.267,4.267v34.133
	c0,2.56-1.707,4.267-4.267,4.267h-5.12c-2.56,9.387-9.387,38.4-21.333,59.733h57.173c1.707-9.387,10.24-17.067,20.48-17.067
	c10.24,0,18.773,7.68,21.333,17.067h25.6v-29.867c0-2.56,1.707-4.267,4.267-4.267h12.8V175.36c0-2.56,1.707-4.267,4.267-4.267h4.267
	l-13.653-23.04c-0.853-0.853-0.853-2.56-0.853-3.413c0-0.853,0.853-1.707,1.707-2.56l74.24-42.667
	c1.707-0.853,4.267-0.853,5.973,1.707l17.067,29.867c0.853,0.853,0.853,2.56,0.853,3.413c0,0.853-0.853,1.707-1.707,2.56
	l-25.6,14.507c-1.707,0.853-4.267,0.853-5.973-1.707c-0.853-1.707-0.853-4.267,1.707-5.973l22.187-12.8l-12.8-22.187l-66.56,38.4
	l13.653,23.893h71.68c2.56,0,4.267,1.707,4.267,4.267c0,2.56-1.707,4.267-4.267,4.267h-74.24l0,0h-6.827v29.867
	c0,2.56-1.707,4.267-4.267,4.267h-12.8v25.6h93.867v-25.6h-46.933c-2.56,0-4.267-1.707-4.267-4.267s1.707-4.267,4.267-4.267h51.2
	c2.56,0,4.267,1.707,4.267,4.267v29.867h25.6V64.427c0-2.56-1.707-4.267-4.267-4.267h-128c-2.56,0-4.267-1.707-4.267-4.267
	c0-2.56,1.707-4.267,4.267-4.267h128c6.827,0,12.8,5.973,12.8,12.8v179.2c0,2.56-1.707,4.267-4.267,4.267H5.12
	c-2.56,0-4.267-1.707-4.267-4.267V55.893c0-21.333,17.067-38.4,38.4-38.4h166.4v-12.8c0-2.56,1.707-4.267,4.267-4.267h85.333
	c2.56,0,4.267,1.707,4.267,4.267v12.8h166.4c21.333,0,38.4,17.067,38.4,38.4v409.6C503.467,486.827,486.4,503.893,465.067,503.893z
	 M265.387,239.36h23.893c-1.707-5.12-6.827-8.533-11.947-8.533C272.214,230.827,267.093,234.24,265.387,239.36z M109.227,239.36
	h81.067c15.36-24.747,23.893-64.853,23.893-64.853c0-1.707,2.56-3.413,4.267-3.413h4.267v-25.6H77.653v25.6h98.133
	c2.56,0,4.267,1.707,4.267,4.267c0,2.56-1.707,4.267-4.267,4.267H87.04C88.747,191.573,96.427,219.733,109.227,239.36z
	 M162.987,136.96h23.893c-1.707-5.12-6.827-8.533-11.947-8.533S164.693,131.84,162.987,136.96z M106.667,136.96
	c6.827,0,12.8-5.973,12.8-12.8c0-6.827-5.973-12.8-12.8-12.8s-12.8,5.973-12.8,12.8C93.867,130.986,99.84,136.96,106.667,136.96z
	 M256,68.693h21.333c7.68,0,12.8-5.12,12.8-12.8V8.96h-76.8v46.933c0,7.68,5.12,12.8,12.8,12.8h21.333v-12.8
	c0-2.56,1.707-4.267,4.267-4.267c2.56,0,4.267,1.707,4.267,4.267V68.693z M465.067,469.76H38.4c-2.56,0-4.267-1.707-4.267-4.267
	V277.76c0-2.56,1.707-4.267,4.267-4.267h170.667c2.56,0,4.267,1.707,4.267,4.267v42.667c0,21.333,17.067,38.4,38.4,38.4
	s38.4-17.067,38.4-38.4v-38.4H243.2c-2.56,0-4.267-1.707-4.267-4.267c0-2.56,1.707-4.267,4.267-4.267h221.867
	c2.56,0,4.267,1.707,4.267,4.267v187.733C469.333,468.053,467.627,469.76,465.067,469.76z M42.667,461.227H460.8V367.36h-64
	c-2.56,0-4.267-1.707-4.267-4.267c0-2.56,1.707-4.267,4.267-4.267h64v-76.8H298.667v38.4c0,25.6-21.333,46.933-46.933,46.933
	S204.8,346.027,204.8,320.427v-38.4H42.667v76.8h29.867c2.56,0,4.267,1.707,4.267,4.267c0,2.56-1.707,4.267-4.267,4.267H42.667
	V461.227z M192,418.56H89.6c-2.56,0-4.267-1.707-4.267-4.267c0-2.56,1.707-4.267,4.267-4.267H192c2.56,0,4.267,1.707,4.267,4.267
	C196.267,416.853,194.56,418.56,192,418.56z M328.533,401.493H294.4c-2.56,0-4.267-1.707-4.267-4.267
	c0-2.56,1.707-4.267,4.267-4.267h34.133c2.56,0,4.267,1.707,4.267,4.267C332.8,399.786,331.093,401.493,328.533,401.493z
	 M251.733,324.693c-2.56,0-4.267-1.707-4.267-4.267v-8.533c0-2.56,1.707-4.267,4.267-4.267c2.56,0,4.267,1.707,4.267,4.267v8.533
	C256,322.986,254.293,324.693,251.733,324.693z M38.4,213.76c-2.56,0-4.267-1.707-4.267-4.267V64.427c0-6.827,5.973-12.8,12.8-12.8
	h128c2.56,0,4.267,1.707,4.267,4.267c0,2.56-1.707,4.267-4.267,4.267h-128c-2.56,0-4.267,1.707-4.267,4.267v145.067
	C42.667,212.053,40.96,213.76,38.4,213.76z M294.4,196.693c-11.947,0-21.333-9.387-21.333-21.333
	c0-11.947,9.387-21.333,21.333-21.333c11.947,0,21.333,9.387,21.333,21.333C315.733,187.307,306.347,196.693,294.4,196.693z
	 M294.4,162.56c-6.827,0-12.8,5.973-12.8,12.8c0,6.827,5.973,12.8,12.8,12.8s12.8-5.973,12.8-12.8
	C307.2,168.533,301.227,162.56,294.4,162.56z M260.267,145.493c-11.947,0-21.333-9.387-21.333-21.333s9.387-21.333,21.333-21.333
	c11.947,0,21.333,9.387,21.333,21.333S272.213,145.493,260.267,145.493z M260.267,111.36c-6.827,0-12.8,5.973-12.8,12.8
	c0,6.827,5.973,12.8,12.8,12.8c6.827,0,12.8-5.973,12.8-12.8C273.067,117.333,267.093,111.36,260.267,111.36z"/>
</svg>